<?xml version="1.0" standalone="no"?><!DOCTYPE svg PUBLIC "-//W3C//DTD SVG 1.1//EN" "http://www.w3.org/Graphics/SVG/1.1/DTD/svg11.dtd"><svg t="1685789554646" class="icon" viewBox="0 0 1024 1024" version="1.1" xmlns="http://www.w3.org/2000/svg" p-id="53037" xmlns:xlink="http://www.w3.org/1999/xlink" width="200" height="200"><path d="M512 258c-53.02 0-96-42.98-96-96s42.98-96 96-96 96 42.98 96 96-42.98 96-96 96z m0 350c-53.02 0-96-42.98-96-96s42.98-96 96-96 96 42.98 96 96-42.98 96-96 96z m0 350c-53.02 0-96-42.98-96-96s42.98-96 96-96 96 42.98 96 96-42.98 96-96 96z" fill="#ffffff" p-id="53038"></path></svg>