<svg width="28" height="28" fill="none" xmlns="http://www.w3.org/2000/svg" class="" viewBox="0 0 28 28"><path  fill-rule="evenodd" clip-rule="evenodd" d="M23.25 10.479V7.1a2.35 2.35 0 00-2.35-2.35h-8.4v.057l.618 1.443H20.9c.47 0 .85.38.85.85v2.953h.15c.502 0 .968.157 1.35.426z" fill="#fff"></path><path d="M4.5 5.6A1.6 1.6 0 016.1 4h4.183a1.6 1.6 0 011.471.97l2.084 4.863a1.6 1.6 0 001.47.97H21.9a1.6 1.6 0 011.6 1.6V21.4a1.6 1.6 0 01-1.6 1.6H6.1a1.6 1.6 0 01-1.6-1.6V5.6z" stroke="#fff" stroke-width="1.5"></path></svg>
