<svg width="19" height="19" xmlns="http://www.w3.org/2000/svg"><g fill="none" fill-rule="evenodd"><path d="M1 1h18v18H1z"/><path d="M10.606 17.936a.748.748 0 0 1-.738-.075 82.944 82.944 0 0 0-2.16-1.523c-1.965-1.333-2.537-1.555-2.652-1.59H2.87c-.575 0-1.079-.22-1.42-.62-.295-.343-.451-.793-.451-1.301V7.173c0-1.059.933-1.92 2.08-1.92h.863c.385 0 .698.288.698.643 0 .355-.313.643-.698.643h-.862c-.378 0-.686.285-.686.634v5.654c0 .237.062.634.476.634h2.231c.357 0 .906.136 3.299 1.751.427.288.843.578 1.204.832V4.047c-.29.226-.615.475-.946.722-2.188 1.634-2.328 1.77-2.695 1.77-.385 0-.697-.288-.697-.643 0-.337.281-.613.639-.64.102-.034.23-.25 2-1.581C8.92 2.913 9.83 2.169 9.84 2.162A.73.73 0 0 1 10.303 2c.096 0 .194.018.285.057.25.104.412.334.412.587v14.713a.64.64 0 0 1-.394.579zm7.592-10.654c.525.963.802 2.076.802 3.218a6.74 6.74 0 0 1-.802 3.218c-.512.938-1.236 1.695-2.094 2.189-.374.215-.832.045-1.022-.381-.19-.427-.04-.947.335-1.162 1.272-.733 2.062-2.213 2.062-3.864 0-1.65-.79-3.131-2.061-3.863-.375-.216-.525-.736-.335-1.162.134-.301.401-.475.679-.475.116 0 .233.03.343.093.857.494 1.58 1.25 2.093 2.19zm-3.199 3.229c-.004.007-.004.014-.004.02 0 .716-.186 1.387-.514 1.971A.766.766 0 0 1 13 12.23c0-.218.09-.414.235-.554.154-.351.24-.738.24-1.144l-.001-.043h.005v-.02c0-.407-.086-.794-.24-1.145a.77.77 0 0 1-.234-.554c0-.425.342-.77.765-.77.327 0 .606.207.716.498.327.584.514 1.255.514 1.97v.043z" stroke="#FFF" stroke-width=".1" fill="#FFF"/></g></svg>