<svg width="24" height="24" fill="none" xmlns="http://www.w3.org/2000/svg" class="" viewBox="0 0 24 24"><path fill-rule="evenodd" clip-rule="evenodd" d="M12.16 6.598C12.894 5.552 14.1 5 15.424 5c2.525 0 4.625 2.19 4.625 4.794l-.002.171c-.002.057-.002.086.002.095-.01.547-.104 1-.272 1.598-.095.107-.184.309-.272.532a2.37 2.37 0 00-.272.533 10.09 10.09 0 01-.212.34c-.686 1.057-1.62 2.111-2.55 3.042-1.404 1.413-2.828 2.588-3.45 3.1a8.265 8.265 0 00-.315.265c-.22.22-.44.227-.661.227h-.02c-.455 0-.683-.227-.91-.454a2.188 2.188 0 00-.128-.107 32.982 32.982 0 01-3.704-3.251c-1.108-1.129-2.174-2.423-2.759-3.688-.227-.454-.51-1.537-.524-2.137.005-.005.004-.034.003-.092A6.307 6.307 0 014 9.794C4 7.189 6.098 5 8.624 5c1.323 0 2.53.552 3.536 1.598z" fill="url(#heart-like_svg__paint0_linear_10764_120566)"></path><defs><linearGradient id="heart-like_svg__paint0_linear_10764_120566" x1="12.017" y1="14.019" x2="5.002" y2="7.004" gradientUnits="userSpaceOnUse"><stop stop-color="#FE2C55"></stop><stop offset="1" stop-color="#FF9BAE"></stop></linearGradient></defs></svg>