<?xml version="1.0" standalone="no"?><!DOCTYPE svg PUBLIC "-//W3C//DTD SVG 1.1//EN" "http://www.w3.org/Graphics/SVG/1.1/DTD/svg11.dtd"><svg t="1720796814721" class="icon" fill="rgba(255,255,255,0.75)" viewBox="0 0 1024 1024" version="1.1" xmlns="http://www.w3.org/2000/svg" p-id="56922" xmlns:xlink="http://www.w3.org/1999/xlink" width="20" height="20"><path fill="rgba(255,255,255,0.75)" d="M996.864 215.552c-13.824-7.68-30.72-7.68-44.032 0.512L807.936 302.08V236.032c0-26.624-10.24-52.224-29.184-71.168-18.944-18.944-44.032-29.184-71.168-29.184H105.472c-26.624 0-52.224 10.24-71.168 29.184C15.36 183.808 5.12 209.408 5.12 236.032v551.936c0 26.624 10.24 52.224 29.184 71.168 18.944 18.944 44.032 29.184 71.168 29.184h602.112c26.624 0 52.224-10.24 71.168-29.184 18.944-18.944 29.184-44.032 29.184-71.168V721.92l144.384 86.016c6.656 4.096 14.848 6.144 22.528 6.144 7.68 0 14.848-2.048 21.504-5.632 13.824-7.68 22.016-22.528 22.016-38.4V253.952c0.512-15.872-8.192-30.72-21.504-38.4z m-276.48 572.416c0 4.096-2.048 7.168-3.584 8.704-1.536 1.536-4.608 3.584-8.704 3.584H105.472c-4.096 0-7.168-2.048-8.704-3.584-1.536-1.536-3.584-4.608-3.584-8.704V236.032c0-4.096 2.048-7.168 3.584-8.704 1.536-1.536 4.608-3.584 8.704-3.584h602.112c4.096 0 7.168 2.048 8.704 3.584 1.536 1.536 3.584 4.608 3.584 8.704v551.936z m210.432-95.232l-122.88-73.216V404.48l122.88-73.216v361.472z" p-id="56923"></path><path d="M523.776 460.288H454.656V391.168c0-24.064-19.456-44.032-44.032-44.032s-44.032 19.456-44.032 44.032v69.12H297.984c-24.064 0-44.032 19.456-44.032 44.032s19.456 44.032 44.032 44.032h69.12v69.12c0 24.064 19.456 44.032 44.032 44.032s44.032-19.456 44.032-44.032V547.84h69.12c24.064 0 44.032-19.456 44.032-44.032s-20.48-43.52-44.544-43.52z" p-id="56924"></path></svg>