<svg width="400" height="125" viewBox="0 0 400 125" fill="none" xmlns="http://www.w3.org/2000/svg">
<mask id="mask0_909_34050" style="mask-type:alpha" maskUnits="userSpaceOnUse" x="-87" y="0" width="772" height="126">
<path d="M-87 125L685 125L685 16C685 7.16349 677.837 3.63466e-05 669 3.5574e-05L-71 -2.91188e-05C-79.8366 -2.98913e-05 -87 7.16341 -87 16L-87 125Z" fill="#C4C4C4"/>
</mask>
<g mask="url(#mask0_909_34050)">
<path d="M-136.41 114.463C-101.369 134.273 -58.5997 136.927 -21.7479 121.573C6.34489 109.867 30.1928 88.7161 56.5129 72.8281C101.214 45.8385 153.586 34.3301 204.346 40.3336C240.726 44.6398 276.079 57.646 312.635 59.3934C349.191 61.1409 389.72 48.511 408.716 14.2776C410.932 10.2814 412.851 5.37883 411.204 1.06177C409.084 -4.49501 402.543 -5.77199 397.057 -6.24532C237.459 -19.9522 77.0869 -22.831 -82.8345 -14.8663C-92.9303 -14.3609 -103.646 -13.5925 -111.881 -7.17444C-122.518 1.11941 -126.154 16.7693 -125.88 31.0622C-125.606 45.3605 -122.243 59.4486 -122.283 73.7521C-122.322 88.0503 -126.707 103.631 -137.853 111.071" fill="#FF1D8E"/>
<path d="M-125.217 175.714C-106.942 182.1 -86.8428 172.762 -72.3268 158.972C-57.8107 145.183 -47.1232 127.23 -33.9823 111.858C1.28671 70.593 55.1363 49.583 106.144 57.1828C143.273 62.7145 178.493 82.3188 215.963 81.9008C256.528 81.4546 293.397 57.7845 329.182 36.7452C364.967 15.7059 406.679 -5.02432 446.5 3.5C251.107 -13.2452 53.2243 -17.5683 -142.689 -11.7468C-156.275 -11.3416 -170.953 -10.4565 -181.458 -0.96525C-195.643 11.849 -196.751 35.2793 -193.758 55.2073C-186.596 102.903 -162.053 147.166 -126.782 175.978" fill="url(#paint0_linear_909_34050)"/>
</g>
<g clip-path="url(#clip0_909_34050)">
<path d="M162.994 20H157V36.0796L160.269 39.35H168.442V33.0817H162.994V31.719H168.442V25.4507H162.994V20Z" fill="white"/>
<path d="M207.128 20H201.134V36.0796L204.404 39.35H212.577V33.0817H207.128V31.719H212.577V25.4507H207.128V20Z" fill="white"/>
<path d="M170.077 36.0795V25.4507H176.343V33.0816H177.978V25.4507H183.971V33.0816H185.606V25.4507H191.599V39.35H173.346L170.077 36.0795Z" fill="white"/>
<path d="M193.292 39.3483V25.4487H199.5V39.3483H193.292Z" fill="white"/>
<path d="M193.234 23.8155V20H199.5V23.8155H193.234Z" fill="white"/>
<path d="M214.212 36.0795V28.4486L217.208 25.4507H226.471V31.4464H220.478V33.0816H226.471V39.35H217.481L214.212 36.0795Z" fill="white"/>
<path d="M228.106 39.35V20H234.372V25.4507H239.003L242 28.4486V39.35H236.006V31.4465H234.372V39.35H228.106Z" fill="white"/>
<path fill-rule="evenodd" clip-rule="evenodd" d="M221.466 43.0992H238.657V46.4438H242V52.6553H238.657V56H221.466V43.0992ZM231.855 44.4815L226.308 50.5633H229.544L228.619 54.6179L234.166 48.5361H230.93L231.855 44.4815Z" fill="white"/>
<path fill-rule="evenodd" clip-rule="evenodd" d="M211.423 55.9672C215.21 55.9672 218.015 53.2857 218.015 49.6516C218.015 46.0175 215.21 43.336 211.423 43.336C207.599 43.336 204.776 46.0175 204.776 49.6516C204.776 53.2857 207.599 55.9672 211.423 55.9672ZM211.405 53.2857C209.42 53.2857 208.017 51.7333 208.017 49.6516C208.017 47.5699 209.42 46.0175 211.405 46.0175C213.371 46.0175 214.773 47.5699 214.773 49.6516C214.773 51.7333 213.371 53.2857 211.405 53.2857Z" fill="white"/>
<path d="M160.642 55.826H163.884V46.1586H167.526V43.4771H157V46.1586H160.642V55.826Z" fill="white"/>
<path d="M179.347 51.1335C179.347 54.4324 177.216 55.9672 174.157 55.9672C171.098 55.9672 168.949 54.4324 168.949 51.1335V43.4771H171.954V51.0982C171.954 52.6506 172.882 53.2504 174.157 53.2504C175.414 53.2504 176.361 52.6506 176.361 51.0982V43.4771H179.347V51.1335Z" fill="white"/>
<path fill-rule="evenodd" clip-rule="evenodd" d="M189.856 49.9338C190.621 50.4631 191.112 51.2746 191.222 52.2801L191.622 55.826H188.363L187.962 52.7388C187.871 52.0508 187.325 51.5921 186.615 51.5921H184.557V55.826H181.297V43.4771H186.906C189.71 43.4771 191.313 45.1707 191.313 47.4817C191.313 48.6637 190.766 49.4575 189.856 49.9338ZM186.687 46.0528H184.557V48.9106H186.687C187.725 48.9106 188.217 48.2403 188.217 47.4817C188.217 46.7231 187.725 46.0528 186.687 46.0528Z" fill="white"/>
<path fill-rule="evenodd" clip-rule="evenodd" d="M199.011 55.826H193.639V43.4771H198.92C201.196 43.4771 203.035 44.5709 203.035 46.6526C203.035 47.8169 202.325 48.699 201.615 49.0871C202.726 49.5457 203.709 50.5337 203.709 52.1037C203.709 54.5029 201.724 55.826 199.011 55.826ZM196.826 45.9116V48.0286H198.647C199.667 48.0286 200.085 47.6052 200.085 46.9701C200.085 46.335 199.667 45.9116 198.574 45.9116H196.826ZM196.826 50.6395V53.1446H198.774C200.14 53.1446 200.686 52.7212 200.686 51.9097C200.686 51.0982 200.14 50.6395 198.774 50.6395H196.826Z" fill="white"/>
</g>
<defs>
<linearGradient id="paint0_linear_909_34050" x1="125.808" y1="-12.9921" x2="118.961" y2="185.777" gradientUnits="userSpaceOnUse">
<stop stop-color="#AB21FF"/>
<stop offset="1" stop-color="#AB21FF" stop-opacity="0"/>
</linearGradient>
<clipPath id="clip0_909_34050">
<rect width="85" height="36" fill="white" transform="translate(157 20)"/>
</clipPath>
</defs>
</svg>
