<svg width="19" height="19" xmlns="http://www.w3.org/2000/svg"><g fill="none" fill-rule="evenodd"><path d="M0 1h18v18H0z"/><path d="M12.469 14.897a.474.474 0 0 0-.473.473l-.002 1.587c0 .041-.02.071-.056.088a.091.091 0 0 1-.103-.012l-5.54-4.473-3.642-.011a.63.63 0 0 1-.625-.63l.013-4.857c0-.165.066-.322.185-.44a.62.62 0 0 1 .442-.183h.703a.474.474 0 0 0 0-.945h-.705c-.417 0-.81.163-1.106.457-.297.295-.46.69-.462 1.109l-.013 4.857a1.575 1.575 0 0 0 1.568 1.577l3.309.009 5.282 4.267a1.033 1.033 0 0 0 1.102.129c.366-.177.594-.536.594-.942l.002-1.587a.474.474 0 0 0-.473-.473zm5.392 2.578-4.913-4.913c.002-.017.002-.034.002-.052l.015-10.464c0-.404-.225-.765-.59-.941a1.037 1.037 0 0 0-1.105.124L5.9 5.513 1.806 1.42a.472.472 0 1 0-.668.669l16.054 16.054a.473.473 0 0 0 .668-.668zm-6-15.507a.095.095 0 0 1 .103-.01.092.092 0 0 1 .056.088l-.013 9.575-5.435-5.435 5.289-4.218z" stroke="#FFF" stroke-width=".6" fill="#FFF"/></g></svg>